<svg width="39" height="48" viewBox="0 0 39 48" fill="none" xmlns="http://www.w3.org/2000/svg">
<path fill-rule="evenodd" clip-rule="evenodd" d="M24.7868 0H3.99787C1.79104 0.00279851 0.00279853 1.79104 0 3.99787V43.9765C0.00279853 46.1834 1.79104 47.9716 3.99787 47.9744H23.9872V46.544C23.9834 42.9421 25.0496 39.4194 27.0512 36.4246C27.2631 36.1071 27.2205 35.6848 26.9512 35.4155L21.3542 29.8185C20.8369 29.3006 20.5626 28.5884 20.5988 27.8573C20.6352 27.1259 20.9788 26.4447 21.5445 25.9805C22.6341 25.1476 24.1751 25.2665 25.1242 26.2562L33.0168 34.149L34.1474 33.0184L28.7846 27.6541V3.99787C28.7819 1.79104 26.9936 0.00279851 24.7868 0ZM27.1855 26.0549L26.2548 25.1242C24.7208 23.557 22.2537 23.3937 20.5267 24.7456C19.6131 25.4964 19.0588 26.5986 19.0011 27.7802C18.9435 28.9616 19.3873 30.1123 20.2236 30.9491L25.3649 36.0906C23.4475 39.1803 22.4192 42.7392 22.3937 46.3753H3.99787C2.67337 46.3753 1.59915 45.301 1.59915 43.9765V41.5778H21.5885V39.9787H1.59915V6.39659H27.1855V26.0549ZM1.59915 4.79744H27.1855V3.99787C27.1855 2.67337 26.1113 1.59915 24.7868 1.59915H3.99787C2.67337 1.59915 1.59915 2.67337 1.59915 3.99787V4.79744ZM31.1422 18.6005L30.064 19.7791L34.9676 24.2743C36.1219 25.3363 36.78 26.8327 36.7804 28.4009V47.9744H38.3795V28.4009C38.3775 26.3839 37.5316 24.4606 36.0464 23.0955L31.1422 18.6005ZM4.79744 14.3923H7.99574C8.87906 14.3923 9.59488 13.6765 9.59488 12.7932V9.59488C9.59488 8.71155 8.87906 7.99574 7.99574 7.99574H4.79744C3.91411 7.99574 3.19829 8.71155 3.19829 9.59488V12.7932C3.19829 13.6765 3.91411 14.3923 4.79744 14.3923ZM4.79744 9.59488H7.99574V12.7932H4.79744V9.59488ZM15.9915 14.3923H12.7932C11.9098 14.3923 11.194 13.6765 11.194 12.7932V9.59488C11.194 8.71155 11.9098 7.99574 12.7932 7.99574H15.9915C16.8748 7.99574 17.5906 8.71155 17.5906 9.59488V12.7932C17.5906 13.6765 16.8748 14.3923 15.9915 14.3923ZM15.9915 9.59488H12.7932V12.7932H15.9915V9.59488ZM20.7889 14.3923H23.9872C24.8705 14.3923 25.5864 13.6765 25.5864 12.7932V9.59488C25.5864 8.71155 24.8705 7.99574 23.9872 7.99574H20.7889C19.9056 7.99574 19.1898 8.71155 19.1898 9.59488V12.7932C19.1898 13.6765 19.9056 14.3923 20.7889 14.3923ZM20.7889 9.59488H23.9872V12.7932H20.7889V9.59488ZM7.99574 22.3881H4.79744C3.91411 22.3881 3.19829 21.6722 3.19829 20.7889V17.5906C3.19829 16.7073 3.91411 15.9915 4.79744 15.9915H7.99574C8.87906 15.9915 9.59488 16.7073 9.59488 17.5906V20.7889C9.59488 21.6722 8.87906 22.3881 7.99574 22.3881ZM7.99574 17.5906H4.79744V20.7889H7.99574V17.5906ZM4.79744 30.3838H7.99574C8.87906 30.3838 9.59488 29.668 9.59488 28.7846V25.5864C9.59488 24.703 8.87906 23.9872 7.99574 23.9872H4.79744C3.91411 23.9872 3.19829 24.703 3.19829 25.5864V28.7846C3.19829 29.668 3.91411 30.3838 4.79744 30.3838ZM4.79744 25.5864H7.99574V28.7846H4.79744V25.5864ZM15.9915 22.3881H12.7932C11.9098 22.3881 11.194 21.6722 11.194 20.7889V17.5906C11.194 16.7073 11.9098 15.9915 12.7932 15.9915H15.9915C16.8748 15.9915 17.5906 16.7073 17.5906 17.5906V20.7889C17.5906 21.6722 16.8748 22.3881 15.9915 22.3881ZM15.9915 17.5906H12.7932V20.7889H15.9915V17.5906ZM20.7889 22.3881H23.9872C24.8705 22.3881 25.5864 21.6722 25.5864 20.7889V17.5906C25.5864 16.7073 24.8705 15.9915 23.9872 15.9915H20.7889C19.9056 15.9915 19.1898 16.7073 19.1898 17.5906V20.7889C19.1898 21.6722 19.9056 22.3881 20.7889 22.3881ZM20.7889 17.5906H23.9872V20.7889H20.7889V17.5906ZM15.9915 30.3838H12.7932C11.9098 30.3838 11.194 29.668 11.194 28.7846V25.5864C11.194 24.703 11.9098 23.9872 12.7932 23.9872H15.9915C16.8748 23.9872 17.5906 24.703 17.5906 25.5864V28.7846C17.5906 29.668 16.8748 30.3838 15.9915 30.3838ZM15.9915 25.5864H12.7932V28.7846H15.9915V25.5864ZM4.79744 38.3795H7.99574C8.87906 38.3795 9.59488 37.6637 9.59488 36.7804V33.5821C9.59488 32.6988 8.87906 31.9829 7.99574 31.9829H4.79744C3.91411 31.9829 3.19829 32.6988 3.19829 33.5821V36.7804C3.19829 37.6637 3.91411 38.3795 4.79744 38.3795ZM4.79744 33.5821H7.99574V36.7804H4.79744V33.5821ZM15.9915 38.3795H12.7932C11.9098 38.3795 11.194 37.6637 11.194 36.7804V33.5821C11.194 32.6988 11.9098 31.9829 12.7932 31.9829H15.9915C16.8748 31.9829 17.5906 32.6988 17.5906 33.5821V36.7804C17.5906 37.6637 16.8748 38.3795 15.9915 38.3795ZM15.9915 33.5821H12.7932V36.7804H15.9915V33.5821ZM15.1919 43.177H13.5928V44.7761H15.1919V43.177Z" fill="#495567"/>
</svg>
