<svg width="108" height="28" viewBox="0 0 108 28" fill="none" xmlns="http://www.w3.org/2000/svg">
<path fill-rule="evenodd" clip-rule="evenodd" d="M107.259 22.7451V27.451H98.8459C97.9379 27.451 97.1968 27.1634 96.6226 26.5882C96.0484 26.0131 95.7613 25.281 95.7613 24.3922V12.7059H89.8724V8H95.7613V0H100.809V8H107.98V12.7059H100.809V21.5686C100.809 22.3529 101.169 22.7451 101.891 22.7451H107.259ZM9.13374 28C11.751 28 13.7807 27.4248 15.2229 26.2745C16.6651 25.1242 17.3862 23.5817 17.3862 21.6471V21.4118C17.3862 19.6601 16.7452 18.2941 15.4633 17.3137C14.1813 16.3333 12.5255 15.7386 10.4958 15.5294C8.73314 15.3464 7.51798 15.1177 6.85031 14.8431C6.18264 14.5686 5.8488 14.1177 5.8488 13.4902C5.8488 13.0458 6.06246 12.6732 6.48976 12.3726C6.91707 12.0719 7.55804 11.9216 8.41266 11.9216C9.3474 11.9216 10.1085 12.1242 10.6961 12.5294C11.2836 12.9346 11.6976 13.4902 11.938 14.1961L16.5048 12.3922C16.2912 11.8431 15.9841 11.2745 15.5834 10.6863C15.1828 10.098 14.6621 9.5621 14.0211 9.07844C13.3801 8.59478 12.599 8.20262 11.6776 7.90197C10.7562 7.60131 9.66788 7.45099 8.41266 7.45099C7.45121 7.45099 6.51647 7.58171 5.60844 7.84314C4.70041 8.10458 3.8992 8.4902 3.20482 9.00001C2.51044 9.50981 1.9496 10.1307 1.52229 10.8628C1.09498 11.5948 0.881326 12.4445 0.881326 13.4118V13.6471C0.881326 15.5033 1.54232 16.9085 2.86431 17.8628C4.1863 18.817 5.96898 19.3856 8.21236 19.5686C9.04027 19.6471 9.72797 19.7516 10.2755 19.8824C10.823 20.0131 11.2569 20.1765 11.5774 20.3726C11.8979 20.5686 12.1182 20.7778 12.2384 21C12.3586 21.2222 12.4187 21.4641 12.4187 21.7255C12.4187 22.1699 12.185 22.5817 11.7176 22.9608C11.2503 23.3399 10.389 23.5294 9.13374 23.5294C7.71828 23.5294 6.67004 23.2157 5.98901 22.5882C5.30799 21.9608 4.86065 21.2288 4.64699 20.3922L0 21.8824C0.133534 22.5621 0.393926 23.2614 0.781175 23.9804C1.16842 24.6994 1.72259 25.3529 2.44368 25.9412C3.16476 26.5294 4.07279 27.0196 5.16778 27.4118C6.26276 27.8039 7.58475 28 9.13374 28ZM31.6219 28C34.4528 28 36.7162 27.2941 38.4121 25.8824C40.108 24.4706 41.1829 22.6144 41.6369 20.3137L36.6695 19.098C36.4291 20.3791 35.9016 21.3987 35.0871 22.1569C34.2725 22.915 33.0908 23.2941 31.5418 23.2941C30.8207 23.2941 30.1396 23.183 29.4987 22.9608C28.8577 22.7386 28.2969 22.4052 27.8162 21.9608C27.3354 21.5163 26.9549 20.9608 26.6744 20.2941C26.394 19.6275 26.2538 18.8628 26.2538 18V17.7647C26.2538 16.902 26.394 16.1242 26.6744 15.4314C26.9549 14.7386 27.3354 14.1503 27.8162 13.6667C28.2969 13.183 28.8577 12.8105 29.4987 12.549C30.1396 12.2876 30.8207 12.1569 31.5418 12.1569C33.0908 12.1569 34.2926 12.5752 35.1472 13.4118C36.0018 14.2484 36.5092 15.2418 36.6695 16.3922L41.6369 15.1373C41.1829 12.8366 40.0946 10.9804 38.372 9.56864C36.6494 8.15687 34.3994 7.45099 31.6219 7.45099C30.1797 7.45099 28.8243 7.68628 27.5558 8.15687C26.2872 8.62746 25.1788 9.3072 24.2308 10.1961C23.2827 11.085 22.5415 12.1569 22.0074 13.4118C21.4733 14.6667 21.2062 16.0784 21.2062 17.6471V18.1177C21.2062 19.6863 21.4733 21.085 22.0074 22.3137C22.5415 23.5425 23.276 24.5752 24.2107 25.4118C25.1455 26.2484 26.2471 26.8889 27.5157 27.3333C28.7843 27.7778 30.153 28 31.6219 28ZM58.0159 27.3333C56.774 27.7778 55.4721 28 54.11 28C52.748 28 51.446 27.7778 50.2041 27.3333C48.9623 26.8889 47.8606 26.2418 46.8992 25.3922C45.9377 24.5425 45.1766 23.4967 44.6157 22.2549C44.0549 21.0131 43.7745 19.5817 43.7745 17.9608V17.4902C43.7745 15.8954 44.0549 14.4771 44.6157 13.2353C45.1766 11.9935 45.9377 10.9412 46.8992 10.0784C47.8606 9.21569 48.9623 8.5621 50.2041 8.11766C51.446 7.67321 52.748 7.45099 54.11 7.45099C55.4721 7.45099 56.774 7.67321 58.0159 8.11766C59.2577 8.5621 60.3594 9.21569 61.3209 10.0784C62.2823 10.9412 63.0434 11.9935 63.6043 13.2353C64.1651 14.4771 64.4456 15.8954 64.4456 17.4902V17.9608C64.4456 19.5817 64.1651 21.0131 63.6043 22.2549C63.0434 23.4967 62.2823 24.5425 61.3209 25.3922C60.3594 26.2418 59.2577 26.8889 58.0159 27.3333ZM54.1099 23.2941C53.3888 23.2941 52.7078 23.1765 52.0668 22.9412C51.4259 22.7059 50.865 22.366 50.3843 21.9216C49.9036 21.4771 49.523 20.9346 49.2426 20.2941C48.9622 19.6536 48.822 18.9281 48.822 18.1176V17.3333C48.822 16.5229 48.9622 15.7974 49.2426 15.1569C49.523 14.5163 49.9036 13.9739 50.3843 13.5294C50.865 13.085 51.4259 12.7451 52.0668 12.5098C52.7078 12.2745 53.3888 12.1569 54.1099 12.1569C54.831 12.1569 55.512 12.2745 56.153 12.5098C56.794 12.7451 57.3548 13.085 57.8355 13.5294C58.3162 13.9739 58.6968 14.5163 58.9772 15.1569C59.2577 15.7974 59.3979 16.5229 59.3979 17.3333V18.1176C59.3979 18.9281 59.2577 19.6536 58.9772 20.2941C58.6968 20.9346 58.3162 21.4771 57.8355 21.9216C57.3548 22.366 56.794 22.7059 56.153 22.9412C55.512 23.1765 54.831 23.2941 54.1099 23.2941ZM80.7444 27.3333C79.5025 27.7778 78.2006 28 76.8385 28C75.4765 28 74.1745 27.7778 72.9326 27.3333C71.6908 26.8889 70.5891 26.2418 69.6277 25.3922C68.6662 24.5425 67.9051 23.4967 67.3442 22.2549C66.7834 21.0131 66.503 19.5817 66.503 17.9608V17.4902C66.503 15.8954 66.7834 14.4771 67.3442 13.2353C67.9051 11.9935 68.6662 10.9412 69.6277 10.0784C70.5891 9.21569 71.6908 8.5621 72.9326 8.11766C74.1745 7.67321 75.4765 7.45099 76.8385 7.45099C78.2006 7.45099 79.5025 7.67321 80.7444 8.11766C81.9863 8.5621 83.0879 9.21569 84.0494 10.0784C85.0108 10.9412 85.7719 11.9935 86.3328 13.2353C86.8936 14.4771 87.1741 15.8954 87.1741 17.4902V17.9608C87.1741 19.5817 86.8936 21.0131 86.3328 22.2549C85.7719 23.4967 85.0108 24.5425 84.0494 25.3922C83.0879 26.2418 81.9863 26.8889 80.7444 27.3333ZM76.8384 23.2941C76.1173 23.2941 75.4363 23.1765 74.7953 22.9412C74.1544 22.7059 73.5935 22.366 73.1128 21.9216C72.6321 21.4771 72.2515 20.9346 71.9711 20.2941C71.6907 19.6536 71.5505 18.9281 71.5505 18.1176V17.3333C71.5505 16.5229 71.6907 15.7974 71.9711 15.1569C72.2515 14.5163 72.6321 13.9739 73.1128 13.5294C73.5935 13.085 74.1544 12.7451 74.7953 12.5098C75.4363 12.2745 76.1173 12.1569 76.8384 12.1569C77.5595 12.1569 78.2405 12.2745 78.8815 12.5098C79.5225 12.7451 80.0833 13.085 80.564 13.5294C81.0447 13.9739 81.4253 14.5163 81.7057 15.1569C81.9862 15.7974 82.1264 16.5229 82.1264 17.3333V18.1176C82.1264 18.9281 81.9862 19.6536 81.7057 20.2941C81.4253 20.9346 81.0447 21.4771 80.564 21.9216C80.0833 22.366 79.5225 22.7059 78.8815 22.9412C78.2405 23.1765 77.5595 23.2941 76.8384 23.2941Z" fill="white"/>
</svg>
